<?xml version="1.0" standalone="no"?>
<!DOCTYPE svg PUBLIC "-//W3C//DTD SVG 20010904//EN"
 "http://www.w3.org/TR/2001/REC-SVG-20010904/DTD/svg10.dtd">
<svg version="1.0" xmlns="http://www.w3.org/2000/svg"
 width="500.000000pt" height="500.000000pt" viewBox="0 0 500.000000 500.000000"
 preserveAspectRatio="xMidYMid meet">
<metadata>
Created by potrace 1.11, written by Peter Selinger 2001-2013
</metadata>
<g transform="translate(0.000000,500.000000) scale(0.100000,-0.100000)"
fill="#000000" stroke="none">
<path d="M1840 3823 c-90 -7 -259 -34 -335 -54 -198 -51 -301 -155 -280 -281
10 -59 53 -99 160 -152 62 -31 105 -59 125 -84 37 -44 709 -1447 742 -1547 54
-170 3 -319 -115 -332 -77 -9 -95 11 -157 182 -71 195 -150 259 -320 259 -109
0 -179 -27 -255 -95 -123 -113 -161 -286 -100 -458 80 -228 413 -380 750 -342
351 40 602 211 807 551 110 183 167 318 389 930 194 537 250 675 320 792 65
110 112 150 245 213 152 72 184 116 171 232 -6 55 -30 89 -88 125 -84 52 -152
63 -379 62 -219 -1 -301 -14 -408 -66 -138 -66 -169 -189 -77 -302 55 -68 71
-100 80 -158 16 -103 -65 -331 -140 -397 -63 -55 -106 -41 -179 62 -86 122
-146 266 -146 352 0 43 7 63 42 121 70 115 64 208 -16 282 -49 45 -129 78
-236 98 -69 12 -467 17 -600 7z"/>
</g>
</svg>
